<svg id="svg" version="1.1" xmlns="http://www.w3.org/2000/svg" xmlns:xlink="http://www.w3.org/1999/xlink" width="400" height="400" viewBox="0, 0, 400,400"><g id="svgg"><path id="path0" d="M163.600 0.400 C 163.600 0.620,163.780 0.800,164.000 0.800 C 164.220 0.800,164.400 1.053,164.400 1.362 C 164.400 2.028,166.068 5.341,166.500 5.533 C 166.665 5.607,166.800 6.012,166.800 6.433 C 166.800 6.855,166.980 7.200,167.200 7.200 C 167.420 7.200,167.600 7.560,167.600 8.000 C 167.600 8.440,167.780 8.800,168.000 8.800 C 168.220 8.800,168.400 9.160,168.400 9.600 C 168.400 10.040,168.580 10.400,168.800 10.400 C 169.020 10.400,169.200 10.760,169.200 11.200 C 169.200 11.640,169.380 12.000,169.600 12.000 C 169.820 12.000,170.000 12.360,170.000 12.800 C 170.000 13.240,170.180 13.600,170.400 13.600 C 170.620 13.600,170.800 13.960,170.800 14.400 C 170.800 14.840,170.980 15.200,171.200 15.200 C 171.420 15.200,171.600 15.560,171.600 16.000 C 171.600 16.440,171.780 16.800,172.000 16.800 C 172.220 16.800,172.400 17.145,172.400 17.567 C 172.400 17.988,172.544 18.393,172.721 18.467 C 172.897 18.540,173.708 19.995,174.523 21.700 C 175.363 23.458,176.255 24.800,176.584 24.800 C 176.950 24.800,181.317 33.122,188.442 47.400 C 194.646 59.830,199.872 70.000,200.057 70.000 C 200.242 70.000,205.455 59.830,211.642 47.400 C 218.251 34.122,223.116 24.800,223.435 24.800 C 224.027 24.800,225.200 22.819,225.200 21.820 C 225.200 21.479,225.335 21.199,225.500 21.197 C 225.865 21.193,226.800 19.251,226.800 18.497 C 226.800 18.198,226.980 18.064,227.200 18.200 C 227.420 18.336,227.600 18.192,227.600 17.880 C 227.600 17.205,230.068 12.259,230.500 12.067 C 230.665 11.993,230.800 11.588,230.800 11.167 C 230.800 10.745,230.980 10.400,231.200 10.400 C 231.420 10.400,231.600 10.040,231.600 9.600 C 231.600 9.160,231.780 8.800,232.000 8.800 C 232.220 8.800,232.400 8.440,232.400 8.000 C 232.400 7.560,232.580 7.200,232.800 7.200 C 233.020 7.200,233.200 6.840,233.200 6.400 C 233.200 5.960,233.335 5.599,233.500 5.597 C 233.859 5.593,234.800 3.656,234.800 2.920 C 234.800 2.634,234.941 2.400,235.112 2.400 C 235.284 2.400,235.628 1.860,235.878 1.200 L 236.331 -0.000 199.965 -0.000 C 175.988 -0.000,163.600 0.136,163.600 0.400 M97.459 91.500 C 87.490 102.010,79.058 114.227,73.043 126.879 C 69.621 134.076,68.800 135.918,68.800 136.401 C 68.800 136.626,68.641 137.123,68.447 137.505 C 66.476 141.380,63.542 151.355,61.653 160.600 C 60.262 167.410,58.800 180.674,58.800 186.480 L 58.800 188.400 105.753 188.400 L 152.707 188.400 152.948 187.500 C 153.081 187.005,153.192 185.610,153.195 184.400 C 153.216 176.403,157.955 165.106,164.460 157.546 C 165.527 156.306,166.400 155.135,166.400 154.945 C 166.400 154.529,100.725 88.800,100.309 88.800 C 100.151 88.800,98.868 90.015,97.459 91.500 M247.027 190.700 C 246.450 196.458,245.782 199.715,244.338 203.800 C 242.173 209.929,240.039 213.524,234.530 220.327 L 233.455 221.655 266.527 254.726 C 294.987 283.187,299.696 287.737,300.299 287.366 C 302.365 286.093,312.820 273.322,317.526 266.321 C 326.627 252.783,334.894 233.476,337.704 219.200 C 337.813 218.650,338.190 216.850,338.543 215.200 C 339.513 210.663,340.709 200.493,341.023 194.100 L 341.303 188.400 294.280 188.400 L 247.258 188.400 247.027 190.700 " stroke="none" fill="#fbcf05" fill-rule="evenodd"></path><path id="path1" d="M208.330 54.100 C 206.529 57.675,203.917 62.882,202.525 65.670 L 199.996 70.741 200.098 105.863 L 200.200 140.986 204.800 141.473 C 214.082 142.455,222.974 146.115,229.694 151.718 C 231.072 152.867,232.479 154.023,232.819 154.286 C 233.343 154.690,238.531 149.670,266.547 121.653 L 299.655 88.543 298.525 87.372 C 285.979 74.357,263.458 60.466,245.400 54.605 C 238.223 52.275,232.398 50.759,226.400 49.660 C 221.298 48.726,213.533 47.600,212.186 47.600 C 211.836 47.600,210.303 50.184,208.330 54.100 M194.435 165.416 C 180.690 168.762,172.913 184.207,178.386 197.285 C 186.017 215.521,211.890 216.505,220.704 198.895 C 229.621 181.080,213.657 160.735,194.435 165.416 M133.402 254.798 L 100.227 287.975 101.413 289.236 C 102.459 290.347,109.796 296.786,111.855 298.400 C 122.425 306.685,130.521 311.638,142.540 317.170 C 144.487 318.067,146.244 318.800,146.445 318.800 C 146.646 318.800,147.123 318.965,147.505 319.166 C 152.098 321.589,166.545 325.742,176.000 327.357 C 183.282 328.602,198.789 329.897,199.700 329.337 C 199.865 329.236,200.000 308.013,200.000 282.176 L 200.000 235.200 197.524 235.200 C 189.217 235.200,178.238 230.960,170.653 224.823 C 169.143 223.600,167.608 222.380,167.242 222.110 C 166.664 221.684,162.269 225.930,133.402 254.798 " stroke="none" fill="#dce9fb" fill-rule="evenodd"></path><path id="path2" d="M171.800 25.043 C 169.148 25.596,166.871 26.029,166.000 26.144 C 165.450 26.217,164.730 26.381,164.400 26.509 C 163.765 26.754,161.982 27.102,159.497 27.465 C 158.671 27.586,157.895 27.845,157.774 28.042 C 157.652 28.239,157.023 28.400,156.376 28.400 C 155.729 28.400,155.200 28.580,155.200 28.800 C 155.200 29.020,154.581 29.200,153.824 29.200 C 153.067 29.200,152.336 29.380,152.200 29.600 C 152.064 29.820,151.423 30.000,150.776 30.000 C 150.129 30.000,149.600 30.180,149.600 30.400 C 149.600 30.620,149.060 30.800,148.400 30.800 C 147.740 30.800,147.200 30.980,147.200 31.200 C 147.200 31.420,146.750 31.600,146.200 31.600 C 145.650 31.600,145.200 31.780,145.200 32.000 C 145.200 32.220,144.660 32.400,144.000 32.400 C 143.340 32.400,142.800 32.580,142.800 32.800 C 142.800 33.020,142.440 33.200,142.000 33.200 C 141.560 33.200,141.200 33.380,141.200 33.600 C 141.200 33.820,140.660 34.000,140.000 34.000 C 139.340 34.000,138.800 34.180,138.800 34.400 C 138.800 34.620,138.361 34.800,137.824 34.800 C 137.287 34.800,136.736 34.980,136.600 35.200 C 136.464 35.420,136.003 35.600,135.576 35.600 C 135.149 35.600,134.800 35.780,134.800 36.000 C 134.800 36.220,134.440 36.400,134.000 36.400 C 133.560 36.400,133.200 36.580,133.200 36.800 C 133.200 37.020,132.840 37.200,132.400 37.200 C 131.960 37.200,131.600 37.380,131.600 37.600 C 131.600 37.820,131.150 38.000,130.600 38.000 C 130.050 38.000,129.600 38.180,129.600 38.400 C 129.600 38.620,129.366 38.800,129.080 38.800 C 128.344 38.800,126.407 39.741,126.403 40.100 C 126.401 40.265,126.040 40.400,125.600 40.400 C 125.160 40.400,124.800 40.580,124.800 40.800 C 124.800 41.020,124.440 41.200,124.000 41.200 C 123.560 41.200,123.200 41.380,123.200 41.600 C 123.200 41.820,122.853 42.000,122.429 42.000 C 122.004 42.000,121.387 42.270,121.057 42.600 C 120.727 42.930,120.174 43.200,119.829 43.200 C 119.483 43.200,119.200 43.380,119.200 43.600 C 119.200 43.820,118.840 44.000,118.400 44.000 C 117.960 44.000,117.600 44.158,117.600 44.351 C 117.600 44.545,117.060 44.927,116.400 45.200 C 115.740 45.473,115.200 45.855,115.200 46.049 C 115.200 46.242,114.840 46.400,114.400 46.400 C 113.960 46.400,113.600 46.580,113.600 46.800 C 113.600 47.020,113.364 47.200,113.075 47.200 C 112.787 47.200,112.164 47.560,111.692 48.000 C 111.220 48.440,110.646 48.800,110.417 48.800 C 110.188 48.800,110.000 48.950,110.000 49.132 C 110.000 49.315,109.505 49.719,108.900 50.030 C 108.295 50.340,107.509 50.911,107.153 51.297 C 106.797 51.684,106.252 52.000,105.941 52.000 C 105.631 52.000,105.117 52.360,104.800 52.800 C 104.483 53.240,104.020 53.600,103.771 53.600 C 103.522 53.600,102.754 54.140,102.063 54.800 C 101.372 55.460,100.608 56.000,100.364 56.000 C 100.120 56.000,99.444 56.511,98.860 57.135 C 98.277 57.759,97.320 58.524,96.732 58.835 C 96.145 59.146,94.851 60.165,93.856 61.100 C 92.861 62.035,91.951 62.800,91.834 62.800 C 91.423 62.800,74.800 79.490,74.800 79.903 C 74.800 80.132,73.900 81.238,72.800 82.361 C 71.700 83.485,70.800 84.561,70.800 84.754 C 70.800 84.946,70.080 85.845,69.200 86.752 C 68.320 87.659,67.600 88.589,67.600 88.819 C 67.600 89.048,67.163 89.673,66.629 90.207 C 66.095 90.741,65.336 91.723,64.943 92.389 C 64.549 93.055,64.086 93.600,63.914 93.600 C 63.741 93.600,63.600 93.870,63.600 94.200 C 63.600 94.530,63.450 94.800,63.268 94.800 C 63.085 94.800,62.680 95.295,62.368 95.900 C 62.055 96.505,61.485 97.349,61.100 97.775 C 60.715 98.202,60.400 98.787,60.400 99.075 C 60.400 99.364,60.253 99.600,60.074 99.600 C 59.699 99.600,58.400 102.181,58.400 102.925 C 58.400 103.199,58.040 103.683,57.600 104.000 C 57.160 104.317,56.800 104.897,56.800 105.288 C 56.800 105.680,56.620 106.000,56.400 106.000 C 56.180 106.000,56.000 106.360,56.000 106.800 C 56.000 107.240,55.820 107.600,55.600 107.600 C 55.380 107.600,55.200 107.971,55.200 108.424 C 55.200 108.877,55.020 109.136,54.800 109.000 C 54.580 108.864,54.400 109.033,54.400 109.376 C 54.400 109.719,54.220 110.000,54.000 110.000 C 53.780 110.000,53.600 110.360,53.600 110.800 C 53.600 111.240,53.465 111.601,53.300 111.601 C 53.135 111.602,52.550 112.592,52.000 113.800 C 51.450 115.008,50.865 115.998,50.700 115.999 C 50.535 115.999,50.400 116.439,50.400 116.976 C 50.400 117.513,50.220 118.064,50.000 118.200 C 49.780 118.336,49.600 118.797,49.600 119.224 C 49.600 119.651,49.420 120.000,49.200 120.000 C 48.980 120.000,48.800 120.360,48.800 120.800 C 48.800 121.240,48.620 121.600,48.400 121.600 C 48.180 121.600,48.000 121.949,48.000 122.376 C 48.000 122.803,47.820 123.264,47.600 123.400 C 47.380 123.536,47.200 124.087,47.200 124.624 C 47.200 125.161,47.065 125.601,46.900 125.603 C 46.494 125.607,45.600 127.586,45.600 128.480 C 45.600 128.876,45.420 129.200,45.200 129.200 C 44.980 129.200,44.800 129.650,44.800 130.200 C 44.800 130.750,44.620 131.200,44.400 131.200 C 44.180 131.200,44.000 131.562,44.000 132.005 C 44.000 132.448,43.835 133.123,43.633 133.505 C 43.432 133.887,42.969 135.280,42.606 136.600 C 42.243 137.920,41.778 139.413,41.573 139.919 C 41.368 140.424,41.200 141.369,41.200 142.019 C 41.200 142.668,41.020 143.200,40.800 143.200 C 40.580 143.200,40.400 143.830,40.400 144.600 C 40.400 145.370,40.220 146.000,40.000 146.000 C 39.780 146.000,39.600 146.709,39.600 147.576 C 39.600 148.443,39.420 149.264,39.200 149.400 C 38.980 149.536,38.800 150.357,38.800 151.224 C 38.800 152.091,38.620 152.800,38.400 152.800 C 38.180 152.800,38.000 153.700,38.000 154.800 C 38.000 155.900,37.820 156.800,37.600 156.800 C 37.380 156.800,37.200 157.700,37.200 158.800 C 37.200 159.900,37.020 160.800,36.800 160.800 C 36.572 160.800,36.400 161.992,36.400 163.576 C 36.400 165.103,36.220 166.464,36.000 166.600 C 35.780 166.736,35.600 168.457,35.600 170.424 C 35.600 172.541,35.437 174.000,35.200 174.000 C 34.941 174.000,34.800 179.067,34.800 188.400 C 34.800 197.733,34.941 202.800,35.200 202.800 C 35.435 202.800,35.600 204.192,35.600 206.176 C 35.600 208.033,35.780 209.664,36.000 209.800 C 36.220 209.936,36.400 211.196,36.400 212.600 C 36.400 214.004,36.580 215.264,36.800 215.400 C 37.020 215.536,37.200 216.627,37.200 217.824 C 37.200 219.021,37.380 220.000,37.600 220.000 C 37.820 220.000,38.000 220.810,38.000 221.800 C 38.000 222.790,38.180 223.600,38.400 223.600 C 38.620 223.600,38.800 224.320,38.800 225.200 C 38.800 226.080,38.980 226.800,39.200 226.800 C 39.420 226.800,39.600 227.509,39.600 228.376 C 39.600 229.243,39.780 230.064,40.000 230.200 C 40.220 230.336,40.400 231.067,40.400 231.824 C 40.400 232.581,40.580 233.200,40.800 233.200 C 41.020 233.200,41.200 233.682,41.200 234.272 C 41.200 234.861,41.381 235.896,41.602 236.572 C 41.823 237.247,42.651 239.780,43.440 242.200 C 44.230 244.620,45.039 246.771,45.238 246.980 C 45.437 247.189,45.600 247.763,45.600 248.256 C 45.600 248.749,45.780 249.264,46.000 249.400 C 46.220 249.536,46.400 249.997,46.400 250.424 C 46.400 250.851,46.580 251.200,46.800 251.200 C 47.020 251.200,47.199 251.515,47.197 251.900 C 47.194 252.543,48.607 255.649,51.701 261.800 C 52.365 263.120,53.109 264.604,53.354 265.097 C 53.599 265.590,53.935 265.995,54.100 265.997 C 54.265 265.999,54.400 266.360,54.400 266.800 C 54.400 267.240,54.580 267.600,54.800 267.600 C 55.020 267.600,55.200 267.960,55.200 268.400 C 55.200 268.840,55.380 269.200,55.600 269.200 C 55.820 269.200,56.000 269.560,56.000 270.000 C 56.000 270.440,56.180 270.800,56.400 270.800 C 56.620 270.800,56.800 271.070,56.800 271.400 C 56.800 271.730,56.980 272.000,57.200 272.000 C 57.420 272.000,57.600 272.270,57.600 272.600 C 57.600 272.930,57.735 273.201,57.900 273.201 C 58.065 273.202,58.533 274.012,58.940 275.001 C 59.346 275.991,59.820 276.800,59.991 276.800 C 60.163 276.800,60.527 277.340,60.800 278.000 C 61.073 278.660,61.455 279.200,61.649 279.200 C 61.842 279.200,62.000 279.436,62.000 279.725 C 62.000 280.013,62.360 280.636,62.800 281.108 C 63.240 281.580,63.600 282.127,63.600 282.324 C 63.600 282.521,64.140 283.246,64.800 283.937 C 65.460 284.628,66.000 285.392,66.000 285.636 C 66.000 285.880,66.540 286.583,67.200 287.200 C 67.860 287.817,68.400 288.492,68.400 288.701 C 68.400 288.910,68.940 289.646,69.600 290.337 C 70.260 291.028,70.800 291.696,70.800 291.822 C 70.800 291.949,71.700 292.929,72.800 294.000 C 73.900 295.071,74.800 296.140,74.800 296.374 C 74.800 296.608,74.980 296.800,75.200 296.800 C 75.420 296.800,75.600 297.049,75.600 297.353 C 75.600 298.017,90.356 312.800,91.018 312.800 C 91.147 312.800,92.129 313.700,93.200 314.800 C 94.271 315.900,95.302 316.800,95.490 316.800 C 95.678 316.800,96.628 317.520,97.600 318.400 C 98.572 319.280,99.512 320.000,99.688 320.000 C 99.863 320.000,100.572 320.540,101.263 321.200 C 101.954 321.860,102.680 322.400,102.877 322.400 C 103.074 322.400,103.713 322.843,104.296 323.384 C 104.880 323.925,105.862 324.577,106.479 324.833 C 107.095 325.088,107.600 325.455,107.600 325.649 C 107.600 325.842,107.836 326.000,108.125 326.000 C 108.413 326.000,109.036 326.360,109.508 326.800 C 109.980 327.240,110.554 327.600,110.783 327.600 C 111.012 327.600,111.200 327.780,111.200 328.000 C 111.200 328.220,111.520 328.400,111.912 328.400 C 112.303 328.400,112.883 328.760,113.200 329.200 C 113.517 329.640,114.097 330.000,114.488 330.000 C 114.880 330.000,115.200 330.180,115.200 330.400 C 115.200 330.620,115.520 330.800,115.912 330.800 C 116.303 330.800,116.883 331.160,117.200 331.600 C 117.517 332.040,118.097 332.400,118.488 332.400 C 118.880 332.400,119.200 332.580,119.200 332.800 C 119.200 333.020,119.560 333.200,120.000 333.200 C 120.440 333.200,120.800 333.380,120.800 333.600 C 120.800 333.820,121.160 334.000,121.600 334.000 C 122.040 334.000,122.400 334.180,122.400 334.400 C 122.400 334.620,122.760 334.800,123.200 334.800 C 123.640 334.800,124.000 334.936,124.000 335.102 C 124.000 335.269,124.585 335.659,125.300 335.970 C 126.015 336.281,126.690 336.640,126.800 336.768 C 127.206 337.240,128.808 338.000,129.395 338.000 C 129.728 338.000,130.000 338.180,130.000 338.400 C 130.000 338.620,130.238 338.800,130.529 338.800 C 130.820 338.800,132.147 339.328,133.478 339.972 C 134.810 340.617,136.551 341.267,137.349 341.417 C 138.147 341.567,138.800 341.849,138.800 342.045 C 138.800 342.240,139.340 342.400,140.000 342.400 C 140.660 342.400,141.200 342.580,141.200 342.800 C 141.200 343.020,141.549 343.200,141.976 343.200 C 142.403 343.200,142.864 343.380,143.000 343.600 C 143.136 343.820,143.687 344.000,144.224 344.000 C 144.761 344.000,145.200 344.180,145.200 344.400 C 145.200 344.620,145.740 344.800,146.400 344.800 C 147.060 344.800,147.600 344.980,147.600 345.200 C 147.600 345.420,148.050 345.600,148.600 345.600 C 149.150 345.600,149.600 345.780,149.600 346.000 C 149.600 346.220,150.320 346.400,151.200 346.400 C 152.080 346.400,152.800 346.580,152.800 346.800 C 152.800 347.020,153.340 347.200,154.000 347.200 C 154.933 347.200,155.200 347.378,155.200 348.000 C 155.200 348.440,155.020 348.800,154.800 348.800 C 154.580 348.800,154.400 349.340,154.400 350.000 C 154.400 350.660,154.220 351.200,154.000 351.200 C 153.780 351.200,153.600 351.560,153.600 352.000 C 153.600 352.440,153.420 352.800,153.200 352.800 C 152.980 352.800,152.800 353.340,152.800 354.000 C 152.800 354.660,152.620 355.200,152.400 355.200 C 152.180 355.200,152.000 355.560,152.000 356.000 C 152.000 356.440,151.820 356.800,151.600 356.800 C 151.380 356.800,151.200 357.340,151.200 358.000 C 151.200 358.660,151.020 359.200,150.800 359.200 C 150.580 359.200,150.400 359.549,150.400 359.976 C 150.400 360.403,150.220 360.864,150.000 361.000 C 149.780 361.136,149.600 361.597,149.600 362.024 C 149.600 362.451,149.420 362.800,149.200 362.800 C 148.980 362.800,148.800 363.340,148.800 364.000 C 148.800 364.660,148.620 365.200,148.400 365.200 C 148.180 365.200,148.000 365.560,148.000 366.000 C 148.000 366.440,147.820 366.800,147.600 366.800 C 147.380 366.800,147.200 367.340,147.200 368.000 C 147.200 368.660,147.020 369.200,146.800 369.200 C 146.580 369.200,146.400 369.560,146.400 370.000 C 146.400 370.440,146.220 370.800,146.000 370.800 C 145.780 370.800,145.600 371.340,145.600 372.000 C 145.600 372.660,145.420 373.200,145.200 373.200 C 144.980 373.200,144.800 373.524,144.800 373.920 C 144.800 375.622,145.223 375.600,112.720 375.600 L 81.600 375.600 81.600 387.800 L 81.600 400.000 200.000 400.000 L 318.400 400.000 318.400 387.800 L 318.400 375.600 287.280 375.600 C 254.777 375.600,255.200 375.622,255.200 373.920 C 255.200 373.524,255.020 373.200,254.800 373.200 C 254.580 373.200,254.400 372.660,254.400 372.000 C 254.400 371.340,254.220 370.800,254.000 370.800 C 253.780 370.800,253.600 370.440,253.600 370.000 C 253.600 369.560,253.420 369.200,253.200 369.200 C 252.980 369.200,252.800 368.660,252.800 368.000 C 252.800 367.340,252.620 366.800,252.400 366.800 C 252.180 366.800,252.000 366.440,252.000 366.000 C 252.000 365.560,251.820 365.200,251.600 365.200 C 251.380 365.200,251.200 364.660,251.200 364.000 C 251.200 363.340,251.020 362.800,250.800 362.800 C 250.580 362.800,250.400 362.451,250.400 362.024 C 250.400 361.597,250.220 361.136,250.000 361.000 C 249.780 360.864,249.600 360.403,249.600 359.976 C 249.600 359.549,249.420 359.200,249.200 359.200 C 248.980 359.200,248.800 358.660,248.800 358.000 C 248.800 357.340,248.620 356.800,248.400 356.800 C 248.180 356.800,248.000 356.440,248.000 356.000 C 248.000 355.560,247.820 355.200,247.600 355.200 C 247.380 355.200,247.200 354.660,247.200 354.000 C 247.200 353.340,247.020 352.800,246.800 352.800 C 246.580 352.800,246.400 352.440,246.400 352.000 C 246.400 351.560,246.220 351.200,246.000 351.200 C 245.780 351.200,245.600 350.660,245.600 350.000 C 245.600 349.340,245.420 348.800,245.200 348.800 C 244.980 348.800,244.800 348.440,244.800 348.000 C 244.800 347.378,245.067 347.200,246.000 347.200 C 246.660 347.200,247.200 347.020,247.200 346.800 C 247.200 346.580,247.920 346.400,248.800 346.400 C 249.680 346.400,250.400 346.220,250.400 346.000 C 250.400 345.780,250.839 345.600,251.376 345.600 C 251.913 345.600,252.464 345.420,252.600 345.200 C 252.736 344.980,253.287 344.800,253.824 344.800 C 254.361 344.800,254.800 344.620,254.800 344.400 C 254.800 344.180,255.340 344.000,256.000 344.000 C 256.660 344.000,257.200 343.820,257.200 343.600 C 257.200 343.380,257.560 343.200,258.000 343.200 C 258.440 343.200,258.800 343.020,258.800 342.800 C 258.800 342.580,259.340 342.400,260.000 342.400 C 260.660 342.400,261.200 342.240,261.200 342.045 C 261.200 341.849,261.872 341.563,262.693 341.409 C 263.514 341.255,264.898 340.785,265.768 340.364 C 266.638 339.944,267.586 339.600,267.875 339.600 C 268.164 339.600,268.400 339.420,268.400 339.200 C 268.400 338.980,268.760 338.800,269.200 338.800 C 269.640 338.800,270.000 338.620,270.000 338.400 C 270.000 338.180,270.234 338.000,270.520 338.000 C 271.256 338.000,273.193 337.059,273.197 336.700 C 273.199 336.535,273.560 336.400,274.000 336.400 C 274.440 336.400,274.800 336.220,274.800 336.000 C 274.800 335.780,275.070 335.600,275.400 335.600 C 275.730 335.600,276.000 335.420,276.000 335.200 C 276.000 334.980,276.360 334.800,276.800 334.800 C 277.240 334.800,277.600 334.620,277.600 334.400 C 277.600 334.180,277.960 334.000,278.400 334.000 C 278.840 334.000,279.200 333.820,279.200 333.600 C 279.200 333.380,279.560 333.200,280.000 333.200 C 280.440 333.200,280.800 333.020,280.800 332.800 C 280.800 332.580,281.078 332.400,281.417 332.400 C 281.756 332.400,282.420 332.040,282.892 331.600 C 283.364 331.160,283.987 330.800,284.275 330.800 C 284.564 330.800,284.800 330.620,284.800 330.400 C 284.800 330.180,285.078 330.000,285.417 330.000 C 285.756 330.000,286.420 329.640,286.892 329.200 C 287.364 328.760,287.987 328.400,288.275 328.400 C 288.564 328.400,288.800 328.220,288.800 328.000 C 288.800 327.780,289.070 327.600,289.400 327.600 C 289.730 327.600,290.000 327.420,290.000 327.200 C 290.000 326.980,290.270 326.800,290.600 326.800 C 290.930 326.800,291.200 326.620,291.200 326.400 C 291.200 326.180,291.470 326.000,291.800 326.000 C 292.130 326.000,292.400 325.842,292.400 325.649 C 292.400 325.455,292.905 325.088,293.521 324.833 C 294.138 324.577,295.120 323.925,295.704 323.384 C 296.287 322.843,296.926 322.400,297.123 322.400 C 297.320 322.400,298.046 321.860,298.737 321.200 C 299.428 320.540,300.192 320.000,300.436 320.000 C 300.680 320.000,301.383 319.460,302.000 318.800 C 302.617 318.140,303.319 317.600,303.560 317.600 C 303.802 317.600,304.000 317.420,304.000 317.200 C 304.000 316.980,304.185 316.800,304.411 316.800 C 304.636 316.800,305.616 316.035,306.588 315.100 C 307.559 314.165,309.545 312.320,311.001 311.000 C 316.038 306.434,324.202 298.131,324.800 296.968 C 325.130 296.325,326.255 294.957,327.300 293.926 C 328.345 292.895,329.200 291.949,329.200 291.822 C 329.200 291.696,329.740 291.028,330.400 290.337 C 331.060 289.646,331.600 288.910,331.600 288.701 C 331.600 288.492,332.140 287.817,332.800 287.200 C 333.460 286.583,334.000 285.880,334.000 285.636 C 334.000 285.392,334.540 284.628,335.200 283.937 C 335.860 283.246,336.400 282.521,336.400 282.324 C 336.400 282.127,336.760 281.580,337.200 281.108 C 337.640 280.636,338.000 280.013,338.000 279.725 C 338.000 279.436,338.158 279.200,338.351 279.200 C 338.545 279.200,338.927 278.660,339.200 278.000 C 339.473 277.340,339.815 276.800,339.959 276.800 C 340.103 276.800,340.576 275.992,341.010 275.004 C 341.445 274.016,341.935 273.206,342.100 273.204 C 342.265 273.202,342.400 272.964,342.400 272.675 C 342.400 272.387,342.760 271.764,343.200 271.292 C 343.640 270.820,344.000 270.156,344.000 269.817 C 344.000 269.478,344.180 269.200,344.400 269.200 C 344.620 269.200,344.800 268.840,344.800 268.400 C 344.800 267.960,344.980 267.600,345.200 267.600 C 345.420 267.600,345.600 267.240,345.600 266.800 C 345.600 266.360,345.735 265.999,345.900 265.997 C 346.065 265.995,346.401 265.590,346.646 265.097 C 346.891 264.604,347.635 263.120,348.299 261.800 C 351.393 255.649,352.806 252.543,352.803 251.900 C 352.801 251.515,352.980 251.200,353.200 251.200 C 353.420 251.200,353.600 250.851,353.600 250.424 C 353.600 249.997,353.780 249.536,354.000 249.400 C 354.220 249.264,354.400 248.728,354.400 248.210 C 354.400 247.691,354.535 247.207,354.700 247.133 C 355.211 246.906,358.067 238.338,358.511 235.700 C 358.743 234.325,359.082 233.200,359.266 233.200 C 359.450 233.200,359.600 232.581,359.600 231.824 C 359.600 231.067,359.780 230.336,360.000 230.200 C 360.220 230.064,360.400 229.243,360.400 228.376 C 360.400 227.509,360.580 226.800,360.800 226.800 C 361.020 226.800,361.200 226.080,361.200 225.200 C 361.200 224.320,361.380 223.600,361.600 223.600 C 361.820 223.600,362.000 222.790,362.000 221.800 C 362.000 220.810,362.180 220.000,362.400 220.000 C 362.622 220.000,362.800 218.933,362.800 217.600 C 362.800 216.267,362.978 215.200,363.200 215.200 C 363.429 215.200,363.600 214.000,363.600 212.400 C 363.600 210.800,363.771 209.600,364.000 209.600 C 364.235 209.600,364.400 208.208,364.400 206.224 C 364.400 204.367,364.580 202.736,364.800 202.600 C 365.054 202.443,365.200 197.196,365.200 188.176 C 365.200 178.992,365.059 174.000,364.800 174.000 C 364.563 174.000,364.400 172.541,364.400 170.424 C 364.400 168.457,364.220 166.736,364.000 166.600 C 363.780 166.464,363.600 165.204,363.600 163.800 C 363.600 162.396,363.420 161.136,363.200 161.000 C 362.980 160.864,362.800 159.863,362.800 158.776 C 362.800 157.689,362.620 156.800,362.400 156.800 C 362.180 156.800,362.000 155.900,362.000 154.800 C 362.000 153.700,361.820 152.800,361.600 152.800 C 361.380 152.800,361.200 152.080,361.200 151.200 C 361.200 150.320,361.020 149.600,360.800 149.600 C 360.580 149.600,360.400 148.790,360.400 147.800 C 360.400 146.810,360.220 146.000,360.000 146.000 C 359.780 146.000,359.600 145.370,359.600 144.600 C 359.600 143.830,359.420 143.200,359.200 143.200 C 358.980 143.200,358.800 142.672,358.800 142.028 C 358.800 140.887,357.087 134.899,356.361 133.505 C 356.163 133.123,356.000 132.459,356.000 132.029 C 356.000 131.599,355.820 131.136,355.600 131.000 C 355.380 130.864,355.200 130.403,355.200 129.976 C 355.200 129.549,355.020 129.200,354.800 129.200 C 354.580 129.200,354.400 128.845,354.400 128.412 C 354.400 127.979,354.040 126.983,353.600 126.200 C 353.160 125.417,352.800 124.421,352.800 123.988 C 352.800 123.555,352.620 123.200,352.400 123.200 C 352.180 123.200,352.000 122.840,352.000 122.400 C 352.000 121.960,351.820 121.600,351.600 121.600 C 351.380 121.600,351.200 121.240,351.200 120.800 C 351.200 120.360,351.020 120.000,350.800 120.000 C 350.580 120.000,350.400 119.651,350.400 119.224 C 350.400 118.797,350.220 118.336,350.000 118.200 C 349.780 118.064,349.600 117.513,349.600 116.976 C 349.600 116.439,349.465 115.999,349.300 115.999 C 349.135 115.998,348.550 115.008,348.000 113.800 C 347.450 112.592,346.899 111.602,346.775 111.601 C 346.651 111.601,346.302 110.970,346.000 110.200 C 345.698 109.430,345.304 108.800,345.125 108.800 C 344.946 108.800,344.800 108.530,344.800 108.200 C 344.800 107.870,344.620 107.600,344.400 107.600 C 344.180 107.600,344.000 107.240,344.000 106.800 C 344.000 106.360,343.820 106.000,343.600 106.000 C 343.380 106.000,343.200 105.680,343.200 105.288 C 343.200 104.897,342.840 104.317,342.400 104.000 C 341.960 103.683,341.600 103.199,341.600 102.925 C 341.600 102.181,340.301 99.600,339.926 99.600 C 339.747 99.600,339.600 99.364,339.600 99.075 C 339.600 98.787,339.285 98.202,338.900 97.775 C 338.515 97.349,337.945 96.505,337.632 95.900 C 337.320 95.295,336.915 94.800,336.732 94.800 C 336.550 94.800,336.400 94.530,336.400 94.200 C 336.400 93.870,336.259 93.600,336.086 93.600 C 335.914 93.600,335.451 93.055,335.057 92.389 C 334.664 91.723,333.905 90.741,333.371 90.207 C 332.837 89.673,332.400 89.034,332.400 88.787 C 332.400 88.540,331.680 87.646,330.800 86.800 C 329.920 85.954,329.200 85.054,329.200 84.800 C 329.200 84.546,328.480 83.646,327.600 82.800 C 326.720 81.954,326.000 81.069,326.000 80.831 C 326.000 80.594,325.820 80.400,325.600 80.400 C 325.380 80.400,325.200 80.187,325.200 79.927 C 325.200 78.922,305.643 60.137,303.242 58.835 C 302.669 58.524,301.723 57.759,301.140 57.135 C 300.556 56.511,299.880 56.000,299.636 56.000 C 299.392 56.000,298.628 55.460,297.937 54.800 C 297.246 54.140,296.478 53.600,296.229 53.600 C 295.980 53.600,295.517 53.240,295.200 52.800 C 294.883 52.360,294.369 52.000,294.059 52.000 C 293.748 52.000,293.203 51.684,292.847 51.297 C 292.491 50.911,291.705 50.340,291.100 50.030 C 290.495 49.719,290.000 49.315,290.000 49.132 C 290.000 48.950,289.812 48.800,289.583 48.800 C 289.354 48.800,288.780 48.440,288.308 48.000 C 287.836 47.560,287.213 47.200,286.925 47.200 C 286.636 47.200,286.400 47.020,286.400 46.800 C 286.400 46.580,286.122 46.400,285.783 46.400 C 285.444 46.400,284.780 46.040,284.308 45.600 C 283.836 45.160,283.213 44.800,282.925 44.800 C 282.636 44.800,282.400 44.620,282.400 44.400 C 282.400 44.180,282.040 44.000,281.600 44.000 C 281.160 44.000,280.800 43.820,280.800 43.600 C 280.800 43.380,280.517 43.200,280.171 43.200 C 279.826 43.200,279.273 42.930,278.943 42.600 C 278.613 42.270,277.996 42.000,277.571 42.000 C 277.147 42.000,276.800 41.820,276.800 41.600 C 276.800 41.380,276.440 41.200,276.000 41.200 C 275.560 41.200,275.200 41.020,275.200 40.800 C 275.200 40.580,274.840 40.400,274.400 40.400 C 273.960 40.400,273.599 40.265,273.597 40.100 C 273.593 39.741,271.656 38.800,270.920 38.800 C 270.634 38.800,270.400 38.620,270.400 38.400 C 270.400 38.180,269.950 38.000,269.400 38.000 C 268.850 38.000,268.400 37.820,268.400 37.600 C 268.400 37.380,268.040 37.200,267.600 37.200 C 267.160 37.200,266.800 37.020,266.800 36.800 C 266.800 36.580,266.440 36.400,266.000 36.400 C 265.560 36.400,265.200 36.220,265.200 36.000 C 265.200 35.780,264.851 35.600,264.424 35.600 C 263.997 35.600,263.536 35.420,263.400 35.200 C 263.264 34.980,262.713 34.800,262.176 34.800 C 261.639 34.800,261.200 34.620,261.200 34.400 C 261.200 34.180,260.761 34.000,260.224 34.000 C 259.687 34.000,259.136 33.820,259.000 33.600 C 258.864 33.380,258.403 33.200,257.976 33.200 C 257.549 33.200,257.200 33.020,257.200 32.800 C 257.200 32.580,256.761 32.400,256.224 32.400 C 255.687 32.400,255.136 32.220,255.000 32.000 C 254.864 31.780,254.313 31.600,253.776 31.600 C 253.239 31.600,252.800 31.420,252.800 31.200 C 252.800 30.980,252.260 30.800,251.600 30.800 C 250.940 30.800,250.400 30.620,250.400 30.400 C 250.400 30.180,249.860 30.000,249.200 30.000 C 248.540 30.000,248.000 29.820,248.000 29.600 C 248.000 29.380,247.280 29.200,246.400 29.200 C 245.520 29.200,244.800 29.020,244.800 28.800 C 244.800 28.580,244.271 28.400,243.624 28.400 C 242.977 28.400,242.336 28.220,242.200 28.000 C 242.064 27.780,241.344 27.600,240.600 27.600 C 239.856 27.600,239.136 27.420,239.000 27.200 C 238.864 26.980,238.054 26.800,237.200 26.800 C 236.346 26.800,235.536 26.620,235.400 26.400 C 235.264 26.180,234.432 26.000,233.550 26.000 C 232.669 26.000,231.621 25.825,231.221 25.611 C 230.822 25.398,228.797 25.103,226.722 24.958 L 222.948 24.692 217.281 36.046 L 211.613 47.400 215.507 47.900 C 222.862 48.843,227.270 49.653,234.000 51.297 C 272.088 60.601,305.354 86.342,324.082 121.000 C 327.769 127.822,333.600 141.227,333.600 142.879 C 333.600 143.187,333.749 143.611,333.930 143.820 C 334.112 144.029,334.469 144.920,334.723 145.800 C 334.977 146.680,335.477 148.390,335.833 149.600 C 337.102 153.906,338.142 158.572,339.191 164.677 C 341.040 175.427,341.653 193.719,340.468 202.800 C 339.058 213.604,338.130 218.244,335.390 228.200 C 328.241 254.168,311.114 279.571,288.187 298.216 C 253.956 326.052,205.855 336.271,163.400 324.727 C 159.073 323.550,151.197 321.000,149.200 320.129 C 148.430 319.793,147.440 319.377,147.000 319.204 C 139.616 316.301,130.176 311.402,124.528 307.543 C 123.608 306.914,122.708 306.396,122.528 306.391 C 122.348 306.386,121.750 306.019,121.200 305.575 C 120.650 305.131,119.120 304.023,117.800 303.113 C 112.358 299.363,106.997 294.755,100.099 287.898 C 96.813 284.631,88.511 274.889,86.380 271.800 C 85.621 270.700,84.892 269.710,84.760 269.600 C 83.522 268.567,76.678 257.047,73.434 250.536 C 59.685 222.938,55.330 189.426,61.602 159.500 C 62.420 155.595,62.751 154.160,63.170 152.700 C 63.775 150.590,64.389 148.404,64.772 147.000 C 67.150 138.280,74.529 122.063,79.665 114.272 C 80.509 112.991,81.200 111.849,81.200 111.733 C 81.200 111.534,86.385 104.257,88.742 101.149 C 92.288 96.473,103.522 84.817,108.562 80.584 C 113.803 76.182,127.597 66.400,128.562 66.400 C 128.648 66.400,129.862 65.715,131.259 64.878 C 139.528 59.925,151.572 55.042,163.800 51.684 C 170.870 49.742,182.947 47.590,186.727 47.597 C 188.424 47.601,188.710 48.377,182.288 35.577 L 176.981 25.000 174.790 24.938 C 173.586 24.904,172.240 24.951,171.800 25.043 M196.000 141.599 C 171.535 143.658,153.005 164.346,153.155 189.436 C 153.333 219.345,183.215 241.504,212.800 233.666 C 226.490 230.039,238.725 218.797,243.877 205.109 C 256.150 172.503,230.656 138.684,196.000 141.599 M207.032 165.900 C 223.846 171.591,229.010 192.390,216.639 204.602 C 204.755 216.334,185.084 212.946,178.551 198.043 C 177.350 195.304,177.246 194.992,176.824 192.880 C 174.606 181.788,181.788 169.110,192.024 166.047 C 193.001 165.754,194.160 165.357,194.600 165.163 C 196.085 164.510,204.378 165.002,207.032 165.900 " stroke="none" fill="#044b77" fill-rule="evenodd"></path><path id="path3" d="M266.499 121.701 C 248.405 139.796,233.600 154.757,233.600 154.947 C 233.600 155.136,234.470 156.306,235.533 157.546 C 242.171 165.284,246.800 176.510,246.800 184.867 C 246.800 186.114,246.909 187.419,247.043 187.767 C 247.262 188.339,251.798 188.400,294.303 188.400 L 341.321 188.400 341.046 182.240 C 340.673 173.883,339.325 163.806,337.601 156.500 C 336.664 152.528,336.449 151.690,335.833 149.600 C 335.477 148.390,334.977 146.680,334.723 145.800 C 334.469 144.920,334.112 144.029,333.930 143.820 C 333.749 143.611,333.600 143.187,333.600 142.879 C 333.600 139.464,323.660 119.188,317.521 110.079 C 311.738 101.498,301.119 88.800,299.727 88.800 C 299.546 88.800,284.594 103.605,266.499 121.701 M58.802 190.098 C 58.820 209.170,64.486 232.575,73.434 250.536 C 76.678 257.047,83.522 268.567,84.760 269.600 C 84.892 269.710,85.621 270.700,86.380 271.800 C 89.301 276.035,99.370 287.600,100.135 287.600 C 100.715 287.600,166.400 221.957,166.400 221.378 C 166.400 221.146,165.759 220.337,164.976 219.578 C 158.990 213.784,153.434 200.514,153.095 191.200 L 153.000 188.600 105.900 188.498 L 58.800 188.397 58.802 190.098 " stroke="none" fill="#fb2c5b" fill-rule="evenodd"></path><path id="path4" d="M187.855 47.000 C 188.032 47.460,187.773 47.599,186.743 47.597 C 183.933 47.592,176.299 48.802,168.700 50.458 C 156.649 53.083,140.686 59.231,131.259 64.878 C 129.862 65.715,128.648 66.400,128.562 66.400 C 127.586 66.400,113.673 76.276,108.562 80.597 C 105.253 83.395,99.277 89.264,100.000 89.006 C 100.405 88.862,111.386 99.581,133.724 121.925 L 166.848 155.059 168.524 153.623 C 176.986 146.372,188.032 141.621,196.467 141.605 C 197.934 141.602,199.374 141.508,199.667 141.396 C 200.106 141.227,200.182 134.990,200.098 105.896 L 199.996 70.600 193.986 58.500 C 188.842 48.144,186.887 44.477,187.855 47.000 M96.185 92.500 L 94.200 94.600 96.300 92.615 C 98.251 90.771,98.583 90.400,98.285 90.400 C 98.222 90.400,97.277 91.345,96.185 92.500 M90.551 98.900 C 89.370 100.248,88.680 101.200,88.884 101.200 C 88.984 101.200,89.645 100.480,90.352 99.600 C 91.725 97.892,91.864 97.401,90.551 98.900 M87.544 102.700 C 86.393 104.089,85.906 104.800,86.104 104.800 C 86.214 104.800,86.786 104.170,87.373 103.400 C 88.463 101.971,88.595 101.432,87.544 102.700 M77.800 117.200 C 77.459 117.860,77.269 118.400,77.379 118.400 C 77.489 118.400,77.859 117.860,78.200 117.200 C 78.541 116.540,78.731 116.000,78.621 116.000 C 78.511 116.000,78.141 116.540,77.800 117.200 M62.649 154.215 C 62.512 154.573,62.415 155.166,62.434 155.533 C 62.453 155.900,62.627 155.669,62.821 155.020 C 63.198 153.758,63.065 153.133,62.649 154.215 M61.849 157.815 C 61.712 158.173,61.615 158.766,61.634 159.133 C 61.653 159.500,61.827 159.269,62.021 158.620 C 62.398 157.358,62.265 156.733,61.849 157.815 M163.144 159.100 C 161.993 160.489,161.506 161.200,161.704 161.200 C 161.814 161.200,162.386 160.570,162.973 159.800 C 164.063 158.371,164.195 157.832,163.144 159.100 M61.000 162.000 C 60.848 162.691,60.807 163.341,60.909 163.442 C 61.011 163.544,61.209 163.053,61.350 162.350 C 61.683 160.683,61.360 160.360,61.000 162.000 M159.453 164.500 L 158.733 165.800 159.558 164.800 C 160.289 163.913,160.614 163.200,160.286 163.200 C 160.224 163.200,159.849 163.785,159.453 164.500 M60.101 168.200 C 60.105 169.080,60.187 169.393,60.283 168.895 C 60.379 168.398,60.375 167.678,60.275 167.295 C 60.175 166.913,60.096 167.320,60.101 168.200 M59.320 174.800 C 59.320 176.010,59.395 176.505,59.487 175.900 C 59.578 175.295,59.578 174.305,59.487 173.700 C 59.395 173.095,59.320 173.590,59.320 174.800 M58.909 180.800 C 58.909 181.790,58.987 182.195,59.082 181.700 C 59.178 181.205,59.178 180.395,59.082 179.900 C 58.987 179.405,58.909 179.810,58.909 180.800 M153.400 181.200 C 153.246 182.110,153.204 182.938,153.307 183.040 C 153.410 183.143,153.613 182.477,153.760 181.560 C 153.907 180.643,153.948 179.815,153.853 179.720 C 153.758 179.624,153.554 180.290,153.400 181.200 M176.493 186.000 C 176.493 186.770,176.575 187.085,176.676 186.700 C 176.776 186.315,176.776 185.685,176.676 185.300 C 176.575 184.915,176.493 185.230,176.493 186.000 M58.501 186.600 C 58.505 187.480,58.587 187.793,58.683 187.295 C 58.779 186.798,58.775 186.078,58.675 185.695 C 58.575 185.313,58.496 185.720,58.501 186.600 M223.314 188.200 C 223.317 189.300,223.395 189.703,223.487 189.095 C 223.579 188.486,223.577 187.586,223.482 187.095 C 223.387 186.603,223.311 187.100,223.314 188.200 M198.100 211.876 C 198.485 211.976,199.115 211.976,199.500 211.876 C 199.885 211.775,199.570 211.693,198.800 211.693 C 198.030 211.693,197.715 211.775,198.100 211.876 M231.400 223.462 C 223.917 230.270,212.721 234.950,203.105 235.291 L 200.009 235.400 199.905 282.400 L 199.800 329.400 206.000 329.110 C 223.795 328.279,240.388 324.430,256.987 317.283 C 271.166 311.179,286.770 300.520,298.981 288.600 L 299.800 287.800 266.600 254.721 L 233.400 221.642 231.400 223.462 M187.100 329.082 C 187.595 329.178,188.405 329.178,188.900 329.082 C 189.395 328.987,188.990 328.909,188.000 328.909 C 187.010 328.909,186.605 328.987,187.100 329.082 M193.900 329.489 C 194.615 329.578,195.785 329.578,196.500 329.489 C 197.215 329.401,196.630 329.328,195.200 329.328 C 193.770 329.328,193.185 329.401,193.900 329.489 " stroke="none" fill="#04c363" fill-rule="evenodd"></path></g></svg>