<svg xmlns="http://www.w3.org/2000/svg" width="512" height="512" viewBox="0 0 512 512" version="1.1">
	<path d="M 218.345 33.526 C 162.737 43.701, 112.361 76.970, 80.443 124.600 C 66.216 145.831, 54.748 173.534, 49.515 199.318 C 32.587 282.712, 67.908 368.198, 139.060 416.041 C 155.099 426.825, 177.814 437.692, 194.387 442.510 C 198.989 443.848, 200.020 444.516, 199.526 445.842 C 199.187 446.754, 195.892 455.262, 192.204 464.748 L 185.500 481.997 145.250 481.998 L 105 482 105 497 L 105 512 256 512 L 407 512 407 497 L 407 482 366.750 481.993 L 326.500 481.985 319.800 464.743 C 316.115 455.259, 312.837 446.796, 312.514 445.935 C 312.047 444.688, 314.290 443.594, 323.584 440.537 C 344.911 433.521, 369.847 419.751, 388.500 404.688 C 398.721 396.434, 415.844 378.799, 423.637 368.500 C 445.291 339.882, 459.189 306.864, 464.676 271 C 467.077 255.307, 467.059 225.594, 464.641 210.500 C 455.950 156.271, 429.019 109.646, 387 76.086 C 359.107 53.807, 325.591 38.957, 288.777 32.566 L 285.054 31.919 278.027 45.946 C 274.162 53.661, 271 60.162, 271 60.393 C 271 60.624, 273.363 61.105, 276.250 61.462 C 312.567 65.959, 344.846 79.984, 372.730 103.381 C 377.806 107.640, 382.252 111.599, 382.610 112.178 C 382.968 112.757, 364.239 132.256, 340.990 155.510 L 298.719 197.789 292.610 193.289 C 282.163 185.595, 274.276 182.495, 261.507 181.063 C 229.346 177.456, 199.136 202.099, 196.304 234.250 L 195.710 241 135.327 241 L 74.944 241 75.504 234.250 C 75.811 230.537, 76.289 224.800, 76.565 221.500 C 76.841 218.200, 77.998 210.775, 79.135 205 C 86.395 168.134, 106.498 132.829, 134.269 108.175 C 162.949 82.713, 193.998 67.970, 230.388 62.534 C 235.826 61.722, 240.466 60.868, 240.698 60.635 C 241.320 60.013, 227.116 31.981, 226.243 32.108 C 225.834 32.168, 222.280 32.806, 218.345 33.526 M 246.882 212.319 C 234.525 216.944, 227.113 226.530, 226.251 239 C 225.411 251.155, 231.841 262.320, 242.776 267.689 C 247.525 270.021, 249.777 270.496, 256 270.479 C 265.101 270.454, 270.878 268.122, 277 262 C 283.138 255.862, 285.459 250.100, 285.459 241 C 285.459 228.750, 279.897 219.543, 269.393 214.404 C 262.825 211.191, 252.462 210.231, 246.882 212.319 M 316.667 241.667 C 316.300 242.033, 315.995 244.171, 315.988 246.417 C 315.962 255.352, 310.933 268.337, 303.899 277.633 L 299.257 283.766 341.398 325.898 L 383.539 368.030 388.592 362.765 C 415.739 334.484, 433.783 292.362, 435.720 252.750 L 436.294 241 376.814 241 C 344.100 241, 317.033 241.300, 316.667 241.667 M 170.140 326.360 L 127.788 368.721 136.644 376.399 C 167.372 403.038, 202.206 417.689, 242.612 420.970 C 249.585 421.537, 255.450 422, 255.645 422 C 255.840 422, 256 394.775, 256 361.500 L 256 301 252.549 301 C 242.887 301, 227.023 294.862, 218.831 287.954 C 216.251 285.779, 213.770 284, 213.316 284 C 212.862 284, 193.433 303.062, 170.140 326.360" stroke="none" fill="black" fill-rule="evenodd"/>
</svg>